<svg width="29" height="31" viewBox="0 0 29 31" fill="none" xmlns="http://www.w3.org/2000/svg">
<path d="M15.7808 12.9987C17.0356 13.7232 18.8372 12.9548 19.8041 11.2801C20.771 9.60544 20.5356 7.66102 19.2808 6.93652C18.0259 6.21202 16.2243 6.98044 15.2574 8.65511C14.2906 10.3298 14.5259 12.2742 15.7808 12.9987Z" fill="url(#paint0_linear_27_1359)"/>
<path d="M21.063 17.6858C23.732 12.3805 24.4146 8.49272 24.3365 5.79645C24.289 4.23729 23.9878 3.08943 23.6824 2.31293C23.5642 2.00784 23.4217 1.71272 23.2563 1.43041C23.2084 1.34866 23.1575 1.26872 23.1037 1.19075C23.0228 1.06121 22.9121 0.952938 22.7808 0.875001C22.6381 0.795215 22.4773 0.753184 22.3138 0.752886C22.2188 0.748533 22.1237 0.74753 22.0286 0.74988C21.6984 0.757356 21.3693 0.790289 21.0442 0.848384C20.2139 0.991422 19.0624 1.32687 17.6851 2.08154C15.3083 3.38072 12.2912 5.90453 9.085 10.7683L5.21849 12.2258L5.20805 12.2299C4.2825 12.5914 3.50758 13.2572 3.01078 14.1177L0.125029 19.1159C0.0332054 19.275 -0.00624983 19.4589 0.0122538 19.6416C0.0307564 19.8243 0.10628 19.9966 0.228125 20.134C0.349969 20.2714 0.511957 20.367 0.691145 20.4072C0.870333 20.4474 1.05763 20.4303 1.22652 20.3581L4.24401 19.0692C4.68984 18.878 5.23053 18.8305 5.88245 18.8633C6.30127 18.8869 6.67788 18.9346 7.07553 18.9843L7.44911 19.0303C8.13549 20.2914 9.24258 21.3489 10.5308 22.0926C11.819 22.8364 13.2883 23.2664 14.7237 23.2303C14.799 23.3344 14.8748 23.4306 14.9481 23.5276C15.1922 23.8503 15.4218 24.1526 15.6516 24.5036C16.0061 25.0517 16.2353 25.5437 16.2926 26.0254L16.6851 29.2831C16.707 29.4654 16.7858 29.6362 16.9102 29.7713C17.0347 29.9064 17.1984 29.9989 17.3784 30.0357C17.5583 30.0725 17.7452 30.0518 17.9127 29.9764C18.0802 29.9011 18.2197 29.775 18.3116 29.616L21.1973 24.6177C21.6941 23.7572 21.8833 22.7532 21.7335 21.7709L21.063 17.6858ZM19.7036 20.2049L19.6555 20.2882C18.8977 21.6007 17.8382 22.4419 16.6463 22.8752C16.8116 23.1 16.9751 23.3278 17.1163 23.5487C17.535 24.1885 17.9262 24.9459 18.0309 25.8146L18.1085 26.4676L19.6818 23.7427C19.979 23.2279 20.0928 22.6274 20.0043 22.0395L19.7036 20.2049ZM6.79528 17.1877C6.57466 15.9389 6.77337 14.6007 7.53112 13.2882L7.57837 13.2064L5.84091 13.8603C5.28702 14.0778 4.82349 14.4771 4.52632 14.9927L2.95307 17.7176L3.55657 17.4598C4.36123 17.1161 5.21361 17.0748 5.97704 17.1175C6.23811 17.1308 6.51801 17.157 6.79528 17.1877ZM21.8556 2.50906C21.916 2.6248 21.9855 2.77402 22.0554 2.95384C22.2881 3.54485 22.5472 4.49262 22.5874 5.84749C22.663 8.55851 21.8701 12.9525 18.1399 19.4132C17.3892 20.7136 16.2781 21.329 15.0544 21.457C13.8921 21.5801 12.5894 21.2605 11.4058 20.5771C10.2222 19.8937 9.29396 18.9254 8.81945 17.8573C8.31784 16.7311 8.29591 15.4636 9.04666 14.1632C12.7059 7.82521 16.1128 4.93434 18.5252 3.61536C19.7313 2.95782 20.6996 2.68429 21.3413 2.57384C21.5442 2.53741 21.7162 2.51951 21.8556 2.50906Z" fill="url(#paint1_linear_27_1359)"/>
<path d="M10.7063 25.2465C9.89747 24.9674 9.09945 24.5996 8.34319 24.163C7.58542 23.7255 6.86941 23.2191 6.22333 22.6582L6.59947 25.7832C6.61572 25.9181 6.66315 26.0473 6.738 26.1606C6.81284 26.274 6.91305 26.3684 7.03069 26.4363C7.14833 26.5042 7.28017 26.5438 7.41577 26.552C7.55136 26.5601 7.68699 26.5366 7.81191 26.4832L10.7063 25.2465Z" fill="black"/>
<defs>
<linearGradient id="paint0_linear_27_1359" x1="19.2808" y1="6.93652" x2="15.7808" y2="12.9987" gradientUnits="userSpaceOnUse">
<stop stop-color="#4D4D4D"/>
<stop offset="1"/>
</linearGradient>
<linearGradient id="paint1_linear_27_1359" x1="22.7808" y1="0.875001" x2="8.78079" y2="25.1237" gradientUnits="userSpaceOnUse">
<stop stop-color="#4D4D4D"/>
<stop offset="1"/>
</linearGradient>
</defs>
</svg>
