<svg width="31" height="32" viewBox="0 0 31 32" fill="none" xmlns="http://www.w3.org/2000/svg">
<path d="M16.4681 14.3102C17.723 15.0347 19.5246 14.2663 20.4914 12.5916C21.4583 10.917 21.223 8.97255 19.9681 8.24805C18.7133 7.52355 16.9117 8.29196 15.9448 9.96664C14.9779 11.6413 15.2133 13.5857 16.4681 14.3102Z" fill="url(#paint0_linear_27_1354)"/>
<path d="M21.7505 18.9983C24.4194 13.693 25.102 9.80522 25.024 7.10895C24.9764 5.54979 24.6753 4.40192 24.3698 3.62543C24.2516 3.32034 24.1092 3.02522 23.9438 2.74291C23.8959 2.66116 23.845 2.58122 23.7912 2.50325C23.7103 2.37371 23.5996 2.26544 23.4683 2.1875C23.3255 2.10771 23.1648 2.06568 23.0013 2.06539C22.9063 2.06103 22.8111 2.06003 22.716 2.06238C22.3859 2.06986 22.0568 2.10279 21.7317 2.16088C20.9014 2.30392 19.7499 2.63937 18.3725 3.39404C15.9958 4.69321 12.9787 7.21703 9.77248 12.0808L5.90596 13.5383L5.89552 13.5424C4.96998 13.9039 4.19505 14.5697 3.69825 15.4302L0.812501 20.4284C0.720678 20.5875 0.681223 20.7714 0.699726 20.9541C0.718229 21.1368 0.793752 21.3091 0.915597 21.4465C1.03744 21.5839 1.19943 21.6795 1.37862 21.7197C1.5578 21.7599 1.74511 21.7427 1.91399 21.6706L4.93148 20.3817C5.37731 20.1905 5.91801 20.1429 6.56992 20.1758C6.98874 20.1994 7.36535 20.2471 7.76301 20.2968L8.13659 20.3428C8.82297 21.6039 9.93005 22.6614 11.2183 23.4051C12.5065 24.1489 13.9758 24.5789 15.4112 24.5428C15.4865 24.6468 15.5622 24.7431 15.6356 24.84C15.8797 25.1628 16.1093 25.4651 16.3391 25.8161C16.6935 26.3642 16.9227 26.8562 16.9801 27.3379L17.3725 30.5956C17.3945 30.7779 17.4733 30.9487 17.5977 31.0838C17.7221 31.2189 17.8859 31.3114 18.0658 31.3482C18.2458 31.385 18.4327 31.3643 18.6002 31.2889C18.7677 31.2136 18.9072 31.0875 18.999 30.9284L21.8848 25.9302C22.3816 25.0697 22.5707 24.0657 22.421 23.0834L21.7505 18.9983ZM20.3911 21.5174L20.3429 21.6007C19.5852 22.9132 18.5257 23.7544 17.3338 24.1877C17.4991 24.4125 17.6626 24.6403 17.8038 24.8612C18.2225 25.501 18.6137 26.2584 18.7184 27.1271L18.796 27.7801L20.3692 25.0552C20.6665 24.5404 20.7802 23.9399 20.6918 23.352L20.3911 21.5174ZM7.48275 18.5002C7.26213 17.2514 7.46084 15.9132 8.21859 14.6007L8.26584 14.5189L6.52838 15.1728C5.97449 15.3903 5.51096 15.7896 5.2138 16.3052L3.64055 19.0301L4.24404 18.7723C5.04871 18.4286 5.90108 18.3873 6.66452 18.43C6.92558 18.4433 7.20548 18.4695 7.48275 18.5002ZM22.543 3.82155C22.6035 3.9373 22.673 4.08652 22.7429 4.26634C22.9756 4.85735 23.2347 5.80512 23.2749 7.15999C23.3505 9.87101 22.5575 14.265 18.8274 20.7257C18.0766 22.0261 16.9656 22.6415 15.7419 22.7695C14.5796 22.8926 13.2769 22.573 12.0933 21.8896C10.9096 21.2062 9.98144 20.2379 9.50692 19.1698C9.00531 18.0436 8.98338 16.7761 9.73413 15.4757C13.3934 9.13771 16.8003 6.24684 19.2127 4.92786C20.4188 4.27032 21.387 3.99679 22.0287 3.88634C22.2316 3.84991 22.4036 3.832 22.543 3.82155Z" fill="url(#paint1_linear_27_1354)"/>
<path d="M12.2689 25.683C11.46 25.4039 10.662 25.0361 9.90577 24.5995C9.148 24.162 8.43199 23.6557 7.7859 23.0947L8.16205 26.2197C8.1783 26.3546 8.22573 26.4838 8.30057 26.5972C8.37542 26.7105 8.47563 26.8049 8.59327 26.8728C8.71091 26.9407 8.84275 26.9803 8.97834 26.9885C9.11394 26.9966 9.24957 26.9731 9.37449 26.9197L12.2689 25.683Z" fill="black"/>
<defs>
<linearGradient id="paint0_linear_27_1354" x1="19.9681" y1="8.24805" x2="16.4681" y2="14.3102" gradientUnits="userSpaceOnUse">
<stop stop-color="#4D4D4D"/>
<stop offset="1"/>
</linearGradient>
<linearGradient id="paint1_linear_27_1354" x1="23.4683" y1="2.1875" x2="9.46826" y2="26.4362" gradientUnits="userSpaceOnUse">
<stop stop-color="#4D4D4D"/>
<stop offset="1"/>
</linearGradient>
</defs>
</svg>
